<svg width="163" height="14" viewBox="0 0 163 14" fill="none" xmlns="http://www.w3.org/2000/svg">
<path d="M0.434516 13.2747V11.7447H1.22652V13.2747H0.434516ZM12.3642 13.2747V0.494658H20.6802V1.32266H13.2822V6.39866H19.5642V7.19066H13.2822V13.2747H12.3642ZM34.1152 0.494658H34.9072L40.3072 13.2747H39.3352L37.5532 9.06266H31.4512L29.6692 13.2747H28.6792L34.1152 0.494658ZM37.3012 8.30666L34.5112 1.61066L31.6672 8.30666H37.3012ZM51.4457 2.20466V13.2747H50.5277V0.494658H51.2837L60.1937 11.7447V0.494658H61.1117V13.2747H60.2117L51.4457 2.20466ZM76.7435 0.494658H77.5355L82.9355 13.2747H81.9635L80.1815 9.06266H74.0795L72.2975 13.2747H71.3075L76.7435 0.494658ZM79.9295 8.30666L77.1395 1.61066L74.2955 8.30666H79.9295ZM100.836 1.32266H96.156V13.2747H95.238V1.32266H90.558V0.494658H100.836V1.32266ZM111.104 13.2747V0.494658H112.022V13.2747H111.104ZM131.089 2.61866C130.885 2.39066 130.657 2.19266 130.405 2.02466C130.153 1.84466 129.883 1.70066 129.595 1.59266C129.307 1.47266 128.995 1.38266 128.659 1.32266C128.323 1.26266 127.963 1.23266 127.579 1.23266C126.331 1.23266 125.419 1.47266 124.843 1.95266C124.279 2.42066 123.997 3.05666 123.997 3.86066C123.997 4.40066 124.123 4.83266 124.375 5.15666C124.639 5.46866 125.047 5.72066 125.599 5.91266C126.151 6.10466 126.865 6.29066 127.741 6.47066C128.665 6.66266 129.463 6.89066 130.135 7.15466C130.807 7.40666 131.323 7.75466 131.683 8.19866C132.055 8.64266 132.241 9.24266 132.241 9.99866C132.241 10.5627 132.133 11.0607 131.917 11.4927C131.701 11.9127 131.389 12.2607 130.981 12.5367C130.573 12.8127 130.087 13.0227 129.523 13.1667C128.971 13.3107 128.353 13.3827 127.669 13.3827C127.009 13.3827 126.379 13.3107 125.779 13.1667C125.179 13.0227 124.615 12.8127 124.087 12.5367C123.559 12.2607 123.067 11.9067 122.611 11.4747L123.097 10.7367C123.361 11.0247 123.655 11.2827 123.979 11.5107C124.315 11.7267 124.675 11.9127 125.059 12.0687C125.455 12.2247 125.875 12.3507 126.319 12.4467C126.763 12.5307 127.225 12.5727 127.705 12.5727C128.821 12.5727 129.691 12.3687 130.315 11.9607C130.951 11.5407 131.269 10.9227 131.269 10.1067C131.269 9.54266 131.125 9.08666 130.837 8.73866C130.549 8.39066 130.105 8.10866 129.505 7.89266C128.905 7.66466 128.155 7.45466 127.255 7.26266C126.355 7.07066 125.587 6.85466 124.951 6.61466C124.327 6.37466 123.853 6.05066 123.529 5.64266C123.217 5.23466 123.061 4.68266 123.061 3.98666C123.061 3.21866 123.247 2.57066 123.619 2.04266C124.003 1.50266 124.537 1.09466 125.221 0.818658C125.905 0.542658 126.691 0.404658 127.579 0.404658C128.131 0.404658 128.641 0.458658 129.109 0.566658C129.589 0.674658 130.027 0.842658 130.423 1.07066C130.831 1.28666 131.209 1.56266 131.557 1.89866L131.089 2.61866ZM142.834 13.2747V0.494658H143.752V8.25266L151.204 0.494658H152.266L146.956 6.09266L152.536 13.2747H151.474L146.344 6.66866L143.752 9.33266V13.2747H142.834ZM162.072 13.2747V11.7447H162.864V13.2747H162.072Z" fill="black"/>
</svg>
